<svg width="428" height="2713" viewBox="0 0 428 2713" fill="none" xmlns="http://www.w3.org/2000/svg">
<line x1="-142" y1="110.584" x2="580" y2="110.584" stroke="url(#paint0_linear_53_1302)" stroke-opacity="0.48"/>
<line x1="-137.288" y1="216.538" x2="574.68" y2="216.538" stroke="url(#paint1_linear_53_1302)" stroke-opacity="0.48"/>
<line x1="-132.576" y1="322.492" x2="569.359" y2="322.492" stroke="url(#paint2_linear_53_1302)" stroke-opacity="0.48"/>
<line x1="-127.864" y1="428.446" x2="564.039" y2="428.446" stroke="url(#paint3_linear_53_1302)" stroke-opacity="0.48"/>
<line x1="-123.152" y1="534.4" x2="558.718" y2="534.4" stroke="url(#paint4_linear_53_1302)" stroke-opacity="0.48"/>
<line x1="-118.44" y1="640.354" x2="553.397" y2="640.354" stroke="url(#paint5_linear_53_1302)" stroke-opacity="0.48"/>
<line x1="-113.729" y1="746.307" x2="548.077" y2="746.307" stroke="url(#paint6_linear_53_1302)" stroke-opacity="0.48"/>
<line x1="-109.017" y1="852.261" x2="542.756" y2="852.261" stroke="url(#paint7_linear_53_1302)" stroke-opacity="0.48"/>
<line x1="-104.305" y1="958.215" x2="537.436" y2="958.215" stroke="url(#paint8_linear_53_1302)" stroke-opacity="0.48"/>
<line x1="-99.5933" y1="1064.17" x2="532.115" y2="1064.17" stroke="url(#paint9_linear_53_1302)" stroke-opacity="0.48"/>
<line x1="-94.8813" y1="1170.12" x2="526.795" y2="1170.12" stroke="url(#paint10_linear_53_1302)" stroke-opacity="0.48"/>
<line x1="-90.1694" y1="1276.08" x2="521.474" y2="1276.08" stroke="url(#paint11_linear_53_1302)" stroke-opacity="0.48"/>
<line x1="-85.457" y1="1382.03" x2="516.154" y2="1382.03" stroke="url(#paint12_linear_53_1302)" stroke-opacity="0.48"/>
<line x1="-80.7451" y1="1487.98" x2="510.834" y2="1487.98" stroke="url(#paint13_linear_53_1302)" stroke-opacity="0.48"/>
<line x1="-76.0337" y1="1593.94" x2="505.512" y2="1593.94" stroke="url(#paint14_linear_53_1302)" stroke-opacity="0.48"/>
<line x1="-71.3218" y1="1699.89" x2="500.192" y2="1699.89" stroke="url(#paint15_linear_53_1302)" stroke-opacity="0.48"/>
<line x1="-66.6094" y1="1805.85" x2="494.872" y2="1805.85" stroke="url(#paint16_linear_53_1302)" stroke-opacity="0.48"/>
<line x1="-61.8975" y1="1911.8" x2="489.552" y2="1911.8" stroke="url(#paint17_linear_53_1302)" stroke-opacity="0.48"/>
<line x1="-57.1855" y1="2017.75" x2="484.231" y2="2017.75" stroke="url(#paint18_linear_53_1302)" stroke-opacity="0.48"/>
<line x1="-52.4741" y1="2123.71" x2="478.91" y2="2123.71" stroke="url(#paint19_linear_53_1302)" stroke-opacity="0.48"/>
<line x1="-47.7622" y1="2229.66" x2="473.589" y2="2229.66" stroke="url(#paint20_linear_53_1302)" stroke-opacity="0.48"/>
<line x1="-43.0503" y1="2335.62" x2="468.269" y2="2335.62" stroke="url(#paint21_linear_53_1302)" stroke-opacity="0.48"/>
<line x1="-38.3384" y1="2441.57" x2="462.949" y2="2441.57" stroke="url(#paint22_linear_53_1302)" stroke-opacity="0.48"/>
<line x1="-33.6265" y1="2547.52" x2="457.628" y2="2547.52" stroke="url(#paint23_linear_53_1302)" stroke-opacity="0.48"/>
<line x1="-28.9146" y1="2653.48" x2="452.308" y2="2653.48" stroke="url(#paint24_linear_53_1302)" stroke-opacity="0.48"/>
<line y1="-0.5" x2="3060.35" y2="-0.5" transform="matrix(0.0446825 0.999001 -0.985671 0.16868 -123.415 -99.045)" stroke="url(#paint25_linear_53_1302)" stroke-opacity="0.48"/>
<line y1="-0.5" x2="3060.35" y2="-0.5" transform="matrix(-0.0446825 0.999001 0.985671 0.16868 550.188 -99.045)" stroke="url(#paint26_linear_53_1302)" stroke-opacity="0.48"/>
<line y1="-0.5" x2="3062.25" y2="-0.5" transform="matrix(0.0394122 0.999223 -0.988803 0.149224 -83.7905 -99.045)" stroke="url(#paint27_linear_53_1302)" stroke-opacity="0.48"/>
<line y1="-0.5" x2="3063.92" y2="-0.5" transform="matrix(0.034147 0.999417 -0.991563 0.129625 -44.167 -99.045)" stroke="url(#paint28_linear_53_1302)" stroke-opacity="0.48"/>
<line y1="-0.5" x2="3065.35" y2="-0.5" transform="matrix(0.0288862 0.999583 -0.993943 0.109899 -4.54346 -99.045)" stroke="url(#paint29_linear_53_1302)" stroke-opacity="0.48"/>
<line y1="-0.5" x2="3066.55" y2="-0.5" transform="matrix(0.0236291 0.999721 -0.995936 0.0900663 35.0806 -99.045)" stroke="url(#paint30_linear_53_1302)" stroke-opacity="0.48"/>
<line y1="-0.5" x2="3067.5" y2="-0.5" transform="matrix(0.0183751 0.999831 -0.997537 0.0701444 74.7041 -99.045)" stroke="url(#paint31_linear_53_1302)" stroke-opacity="0.48"/>
<line y1="-0.5" x2="3068.22" y2="-0.5" transform="matrix(0.0131234 0.999914 -0.998742 0.0501531 114.328 -99.045)" stroke="url(#paint32_linear_53_1302)" stroke-opacity="0.48"/>
<line y1="-0.5" x2="3068.7" y2="-0.5" transform="matrix(0.00787335 0.999969 -0.999547 0.0301119 153.952 -99.045)" stroke="url(#paint33_linear_53_1302)" stroke-opacity="0.48"/>
<line y1="-0.5" x2="3068.94" y2="-0.5" transform="matrix(0.00262434 0.999997 -0.99995 0.0100406 193.575 -99.045)" stroke="url(#paint34_linear_53_1302)" stroke-opacity="0.48"/>
<line y1="-0.5" x2="3068.94" y2="-0.5" transform="matrix(-0.00262434 0.999997 -0.99995 -0.0100406 233.199 -99.045)" stroke="url(#paint35_linear_53_1302)" stroke-opacity="0.48"/>
<line y1="-0.5" x2="3068.7" y2="-0.5" transform="matrix(-0.00787335 0.999969 -0.999547 -0.0301119 272.823 -99.045)" stroke="url(#paint36_linear_53_1302)" stroke-opacity="0.48"/>
<line y1="-0.5" x2="3068.22" y2="-0.5" transform="matrix(-0.0131234 0.999914 -0.998742 -0.0501531 312.447 -99.045)" stroke="url(#paint37_linear_53_1302)" stroke-opacity="0.48"/>
<line y1="-0.5" x2="3067.5" y2="-0.5" transform="matrix(-0.0183751 0.999831 -0.997537 -0.0701444 352.07 -99.045)" stroke="url(#paint38_linear_53_1302)" stroke-opacity="0.48"/>
<line y1="-0.5" x2="3066.55" y2="-0.5" transform="matrix(-0.0236291 0.999721 -0.995936 -0.0900663 391.694 -99.045)" stroke="url(#paint39_linear_53_1302)" stroke-opacity="0.48"/>
<line y1="-0.5" x2="3065.35" y2="-0.5" transform="matrix(-0.0288862 0.999583 -0.993943 -0.109899 431.317 -99.045)" stroke="url(#paint40_linear_53_1302)" stroke-opacity="0.48"/>
<line y1="-0.5" x2="3063.92" y2="-0.5" transform="matrix(-0.034147 0.999417 -0.991563 -0.129625 470.941 -99.045)" stroke="url(#paint41_linear_53_1302)" stroke-opacity="0.48"/>
<line y1="-0.5" x2="3062.25" y2="-0.5" transform="matrix(-0.0394122 0.999223 -0.988803 -0.149224 510.565 -99.045)" stroke="url(#paint42_linear_53_1302)" stroke-opacity="0.48"/>
<defs>
<linearGradient id="paint0_linear_53_1302" x1="219" y1="111.084" x2="219" y2="112.084" gradientUnits="userSpaceOnUse">
<stop offset="1" stop-color="#999999" stop-opacity="0.6"/>
<stop offset="1" stop-color="#999999" stop-opacity="0"/>
</linearGradient>
<linearGradient id="paint1_linear_53_1302" x1="218.696" y1="217.038" x2="218.696" y2="218.038" gradientUnits="userSpaceOnUse">
<stop offset="1" stop-color="#999999" stop-opacity="0.6"/>
<stop offset="1" stop-color="#999999" stop-opacity="0"/>
</linearGradient>
<linearGradient id="paint2_linear_53_1302" x1="218.391" y1="322.992" x2="218.391" y2="323.992" gradientUnits="userSpaceOnUse">
<stop offset="1" stop-color="#999999" stop-opacity="0.6"/>
<stop offset="1" stop-color="#999999" stop-opacity="0"/>
</linearGradient>
<linearGradient id="paint3_linear_53_1302" x1="218.087" y1="428.946" x2="218.087" y2="429.946" gradientUnits="userSpaceOnUse">
<stop offset="1" stop-color="#999999" stop-opacity="0.6"/>
<stop offset="1" stop-color="#999999" stop-opacity="0"/>
</linearGradient>
<linearGradient id="paint4_linear_53_1302" x1="217.783" y1="534.9" x2="217.783" y2="535.9" gradientUnits="userSpaceOnUse">
<stop offset="1" stop-color="#999999" stop-opacity="0.6"/>
<stop offset="1" stop-color="#999999" stop-opacity="0"/>
</linearGradient>
<linearGradient id="paint5_linear_53_1302" x1="217.479" y1="640.854" x2="217.479" y2="641.854" gradientUnits="userSpaceOnUse">
<stop offset="1" stop-color="#999999" stop-opacity="0.6"/>
<stop offset="1" stop-color="#999999" stop-opacity="0"/>
</linearGradient>
<linearGradient id="paint6_linear_53_1302" x1="217.174" y1="746.807" x2="217.174" y2="747.807" gradientUnits="userSpaceOnUse">
<stop offset="1" stop-color="#999999" stop-opacity="0.6"/>
<stop offset="1" stop-color="#999999" stop-opacity="0"/>
</linearGradient>
<linearGradient id="paint7_linear_53_1302" x1="216.87" y1="852.761" x2="216.87" y2="853.761" gradientUnits="userSpaceOnUse">
<stop offset="1" stop-color="#999999" stop-opacity="0.6"/>
<stop offset="1" stop-color="#999999" stop-opacity="0"/>
</linearGradient>
<linearGradient id="paint8_linear_53_1302" x1="216.566" y1="958.715" x2="216.566" y2="959.715" gradientUnits="userSpaceOnUse">
<stop offset="1" stop-color="#999999" stop-opacity="0.6"/>
<stop offset="1" stop-color="#999999" stop-opacity="0"/>
</linearGradient>
<linearGradient id="paint9_linear_53_1302" x1="216.261" y1="1064.67" x2="216.261" y2="1065.67" gradientUnits="userSpaceOnUse">
<stop offset="1" stop-color="#999999" stop-opacity="0.6"/>
<stop offset="1" stop-color="#999999" stop-opacity="0"/>
</linearGradient>
<linearGradient id="paint10_linear_53_1302" x1="215.957" y1="1170.62" x2="215.957" y2="1171.62" gradientUnits="userSpaceOnUse">
<stop offset="1" stop-color="#999999" stop-opacity="0.6"/>
<stop offset="1" stop-color="#999999" stop-opacity="0"/>
</linearGradient>
<linearGradient id="paint11_linear_53_1302" x1="215.652" y1="1276.58" x2="215.652" y2="1277.58" gradientUnits="userSpaceOnUse">
<stop offset="1" stop-color="#999999" stop-opacity="0.6"/>
<stop offset="1" stop-color="#999999" stop-opacity="0"/>
</linearGradient>
<linearGradient id="paint12_linear_53_1302" x1="215.348" y1="1382.53" x2="215.348" y2="1383.53" gradientUnits="userSpaceOnUse">
<stop offset="1" stop-color="#999999" stop-opacity="0.6"/>
<stop offset="1" stop-color="#999999" stop-opacity="0"/>
</linearGradient>
<linearGradient id="paint13_linear_53_1302" x1="215.044" y1="1488.48" x2="215.044" y2="1489.48" gradientUnits="userSpaceOnUse">
<stop offset="1" stop-color="#999999" stop-opacity="0.6"/>
<stop offset="1" stop-color="#999999" stop-opacity="0"/>
</linearGradient>
<linearGradient id="paint14_linear_53_1302" x1="214.739" y1="1594.44" x2="214.739" y2="1595.44" gradientUnits="userSpaceOnUse">
<stop offset="1" stop-color="#999999" stop-opacity="0.6"/>
<stop offset="1" stop-color="#999999" stop-opacity="0"/>
</linearGradient>
<linearGradient id="paint15_linear_53_1302" x1="214.435" y1="1700.39" x2="214.435" y2="1701.39" gradientUnits="userSpaceOnUse">
<stop offset="1" stop-color="#999999" stop-opacity="0.6"/>
<stop offset="1" stop-color="#999999" stop-opacity="0"/>
</linearGradient>
<linearGradient id="paint16_linear_53_1302" x1="214.131" y1="1806.35" x2="214.131" y2="1807.35" gradientUnits="userSpaceOnUse">
<stop offset="1" stop-color="#999999" stop-opacity="0.6"/>
<stop offset="1" stop-color="#999999" stop-opacity="0"/>
</linearGradient>
<linearGradient id="paint17_linear_53_1302" x1="213.827" y1="1912.3" x2="213.827" y2="1913.3" gradientUnits="userSpaceOnUse">
<stop offset="1" stop-color="#999999" stop-opacity="0.6"/>
<stop offset="1" stop-color="#999999" stop-opacity="0"/>
</linearGradient>
<linearGradient id="paint18_linear_53_1302" x1="213.523" y1="2018.25" x2="213.523" y2="2019.25" gradientUnits="userSpaceOnUse">
<stop offset="1" stop-color="#999999" stop-opacity="0.6"/>
<stop offset="1" stop-color="#999999" stop-opacity="0"/>
</linearGradient>
<linearGradient id="paint19_linear_53_1302" x1="213.218" y1="2124.21" x2="213.218" y2="2125.21" gradientUnits="userSpaceOnUse">
<stop offset="1" stop-color="#999999" stop-opacity="0.6"/>
<stop offset="1" stop-color="#999999" stop-opacity="0"/>
</linearGradient>
<linearGradient id="paint20_linear_53_1302" x1="212.914" y1="2230.16" x2="212.914" y2="2231.16" gradientUnits="userSpaceOnUse">
<stop offset="1" stop-color="#999999" stop-opacity="0.6"/>
<stop offset="1" stop-color="#999999" stop-opacity="0"/>
</linearGradient>
<linearGradient id="paint21_linear_53_1302" x1="212.609" y1="2336.12" x2="212.609" y2="2337.12" gradientUnits="userSpaceOnUse">
<stop offset="1" stop-color="#999999" stop-opacity="0.6"/>
<stop offset="1" stop-color="#999999" stop-opacity="0"/>
</linearGradient>
<linearGradient id="paint22_linear_53_1302" x1="212.305" y1="2442.07" x2="212.305" y2="2443.07" gradientUnits="userSpaceOnUse">
<stop offset="1" stop-color="#999999" stop-opacity="0.6"/>
<stop offset="1" stop-color="#999999" stop-opacity="0"/>
</linearGradient>
<linearGradient id="paint23_linear_53_1302" x1="212.001" y1="2548.02" x2="212.001" y2="2549.02" gradientUnits="userSpaceOnUse">
<stop offset="1" stop-color="#999999" stop-opacity="0.6"/>
<stop offset="1" stop-color="#999999" stop-opacity="0"/>
</linearGradient>
<linearGradient id="paint24_linear_53_1302" x1="211.696" y1="2653.98" x2="211.696" y2="2654.98" gradientUnits="userSpaceOnUse">
<stop offset="1" stop-color="#999999" stop-opacity="0.6"/>
<stop offset="1" stop-color="#999999" stop-opacity="0"/>
</linearGradient>
<linearGradient id="paint25_linear_53_1302" x1="1530.17" y1="0" x2="1530.17" y2="1" gradientUnits="userSpaceOnUse">
<stop offset="1" stop-color="#999999" stop-opacity="0.6"/>
<stop offset="1" stop-color="#999999" stop-opacity="0"/>
</linearGradient>
<linearGradient id="paint26_linear_53_1302" x1="1530.17" y1="0" x2="1530.17" y2="1" gradientUnits="userSpaceOnUse">
<stop offset="1" stop-color="#999999" stop-opacity="0.6"/>
<stop offset="1" stop-color="#999999" stop-opacity="0"/>
</linearGradient>
<linearGradient id="paint27_linear_53_1302" x1="1531.13" y1="0" x2="1531.13" y2="1" gradientUnits="userSpaceOnUse">
<stop offset="1" stop-color="#999999" stop-opacity="0.6"/>
<stop offset="1" stop-color="#999999" stop-opacity="0"/>
</linearGradient>
<linearGradient id="paint28_linear_53_1302" x1="1531.96" y1="0" x2="1531.96" y2="1" gradientUnits="userSpaceOnUse">
<stop offset="1" stop-color="#999999" stop-opacity="0.6"/>
<stop offset="1" stop-color="#999999" stop-opacity="0"/>
</linearGradient>
<linearGradient id="paint29_linear_53_1302" x1="1532.68" y1="0" x2="1532.68" y2="1" gradientUnits="userSpaceOnUse">
<stop offset="1" stop-color="#999999" stop-opacity="0.6"/>
<stop offset="1" stop-color="#999999" stop-opacity="0"/>
</linearGradient>
<linearGradient id="paint30_linear_53_1302" x1="1533.27" y1="0" x2="1533.27" y2="1" gradientUnits="userSpaceOnUse">
<stop offset="1" stop-color="#999999" stop-opacity="0.6"/>
<stop offset="1" stop-color="#999999" stop-opacity="0"/>
</linearGradient>
<linearGradient id="paint31_linear_53_1302" x1="1533.75" y1="0" x2="1533.75" y2="1" gradientUnits="userSpaceOnUse">
<stop offset="1" stop-color="#999999" stop-opacity="0.6"/>
<stop offset="1" stop-color="#999999" stop-opacity="0"/>
</linearGradient>
<linearGradient id="paint32_linear_53_1302" x1="1534.11" y1="0" x2="1534.11" y2="1" gradientUnits="userSpaceOnUse">
<stop offset="1" stop-color="#999999" stop-opacity="0.6"/>
<stop offset="1" stop-color="#999999" stop-opacity="0"/>
</linearGradient>
<linearGradient id="paint33_linear_53_1302" x1="1534.35" y1="0" x2="1534.35" y2="1" gradientUnits="userSpaceOnUse">
<stop offset="1" stop-color="#999999" stop-opacity="0.6"/>
<stop offset="1" stop-color="#999999" stop-opacity="0"/>
</linearGradient>
<linearGradient id="paint34_linear_53_1302" x1="1534.47" y1="0" x2="1534.47" y2="1" gradientUnits="userSpaceOnUse">
<stop offset="1" stop-color="#999999" stop-opacity="0.6"/>
<stop offset="1" stop-color="#999999" stop-opacity="0"/>
</linearGradient>
<linearGradient id="paint35_linear_53_1302" x1="1534.47" y1="0" x2="1534.47" y2="1" gradientUnits="userSpaceOnUse">
<stop offset="1" stop-color="#999999" stop-opacity="0.6"/>
<stop offset="1" stop-color="#999999" stop-opacity="0"/>
</linearGradient>
<linearGradient id="paint36_linear_53_1302" x1="1534.35" y1="0" x2="1534.35" y2="1" gradientUnits="userSpaceOnUse">
<stop offset="1" stop-color="#999999" stop-opacity="0.6"/>
<stop offset="1" stop-color="#999999" stop-opacity="0"/>
</linearGradient>
<linearGradient id="paint37_linear_53_1302" x1="1534.11" y1="0" x2="1534.11" y2="1" gradientUnits="userSpaceOnUse">
<stop offset="1" stop-color="#999999" stop-opacity="0.6"/>
<stop offset="1" stop-color="#999999" stop-opacity="0"/>
</linearGradient>
<linearGradient id="paint38_linear_53_1302" x1="1533.75" y1="0" x2="1533.75" y2="1" gradientUnits="userSpaceOnUse">
<stop offset="1" stop-color="#999999" stop-opacity="0.6"/>
<stop offset="1" stop-color="#999999" stop-opacity="0"/>
</linearGradient>
<linearGradient id="paint39_linear_53_1302" x1="1533.27" y1="0" x2="1533.27" y2="1" gradientUnits="userSpaceOnUse">
<stop offset="1" stop-color="#999999" stop-opacity="0.6"/>
<stop offset="1" stop-color="#999999" stop-opacity="0"/>
</linearGradient>
<linearGradient id="paint40_linear_53_1302" x1="1532.68" y1="0" x2="1532.68" y2="1" gradientUnits="userSpaceOnUse">
<stop offset="1" stop-color="#999999" stop-opacity="0.6"/>
<stop offset="1" stop-color="#999999" stop-opacity="0"/>
</linearGradient>
<linearGradient id="paint41_linear_53_1302" x1="1531.96" y1="0" x2="1531.96" y2="1" gradientUnits="userSpaceOnUse">
<stop offset="1" stop-color="#999999" stop-opacity="0.6"/>
<stop offset="1" stop-color="#999999" stop-opacity="0"/>
</linearGradient>
<linearGradient id="paint42_linear_53_1302" x1="1531.13" y1="0" x2="1531.13" y2="1" gradientUnits="userSpaceOnUse">
<stop offset="1" stop-color="#999999" stop-opacity="0.6"/>
<stop offset="1" stop-color="#999999" stop-opacity="0"/>
</linearGradient>
</defs>
</svg>
